<?xml version="1.0" standalone="no"?><!DOCTYPE svg PUBLIC "-//W3C//DTD SVG 1.1//EN"
  "http://www.w3.org/Graphics/SVG/1.1/DTD/svg11.dtd">
<svg t="1581509037270" class="icon" viewBox="0 0 1024 1024" version="1.1" xmlns="http://www.w3.org/2000/svg" p-id="1961"
     xmlns:xlink="http://www.w3.org/1999/xlink" width="200" height="200">
  <defs>
    <style type="text/css"></style>
  </defs>
  <path
    d="M7.8 438.6c-9.8-13.4-6.8-32.2 6.6-41.9l452.1-334 0.3-0.2c32.5-22.5 75.9-22.1 108 0.8l0.6 0.4L1012 396.6c13.2 10 15.9 28.8 6 42-10 13.2-28.8 15.9-42 6L539.6 111.9c-11.5-8.1-26.8-8.2-38.4-0.3L49.7 445.2c-13.4 9.7-32.2 6.8-41.9-6.6zM874.3 977.1H593.1l-0.3-171.2c-0.1-43.5-35.5-78.8-79-78.8s-78.9 35.4-79 78.8l-0.3 171.2H151.2c-45.8 0-83.2-37.3-83.4-83.1l-1.1-346.8c-0.1-16.6 13.3-30 29.9-30.1 16.6-0.1 30 13.3 30.1 29.9l1.1 346.8c0 12.9 10.5 23.3 23.4 23.3h223.4l0.2-111.3c0.1-76.5 62.5-138.7 139-138.7s138.8 62.2 139 138.7l0.2 111.3h221.3c12.9 0 23.4-10.5 23.4-23.4L898 547c0-16.6 13.5-30 30-30 16.6 0 30 13.5 30 30l-0.3 346.7c-0.1 46-37.5 83.4-83.4 83.4z"
    p-id="1962"></path>
</svg>
